<?xml version="1.0" standalone="no"?>
<!DOCTYPE svg PUBLIC "-//W3C//DTD SVG 20010904//EN"
 "http://www.w3.org/TR/2001/REC-SVG-20010904/DTD/svg10.dtd">
<svg version="1.0" xmlns="http://www.w3.org/2000/svg"
 width="124.000000pt" height="124.000000pt" viewBox="0 0 124.000000 124.000000"
 preserveAspectRatio="xMidYMid meet">
<metadata>
Created by potrace 1.11, written by Peter Selinger 2001-2013
</metadata>
<g transform="translate(0.000000,124.000000) scale(0.100000,-0.100000)"
fill="#000000" stroke="none">
<path d="M474 1224 c-119 -25 -298 -98 -402 -164 -35 -22 -34 -13 -17 -150 3
-19 7 -62 11 -95 3 -33 7 -71 9 -85 4 -25 11 -86 20 -182 3 -29 8 -64 10 -78
2 -14 7 -52 10 -84 8 -86 16 -130 23 -138 4 -3 114 -61 245 -127 l238 -121
237 121 c130 67 240 125 245 128 4 4 9 25 12 47 2 21 6 57 9 79 2 22 8 69 11
105 4 36 9 72 10 80 2 8 6 44 9 80 4 36 9 81 11 100 3 19 7 55 10 80 3 25 7
61 10 80 18 142 17 144 -18 163 -141 77 -281 134 -382 158 -74 17 -241 19
-311 3z"/>
</g>
</svg>
